HIERARCHY
ROOT Hips
{
 OFFSET 0.000000 0.000000 0.000000
 CHANNELS 6 Xposition Yposition Zposition Yrotation Xrotation Zrotation
 JOINT Chest
 {
  OFFSET 0.000000 9.585900 0.002600
  CHANNELS 3 Yrotation Xrotation Zrotation
  JOINT Chest2
  {
   OFFSET 0.000000 9.601200 -0.005300
   CHANNELS 3 Yrotation Xrotation Zrotation
   JOINT Chest3
   {
    OFFSET 0.000000 9.561800 0.000000
    CHANNELS 3 Yrotation Xrotation Zrotation
    JOINT Chest4
    {
     OFFSET 0.000000 9.552100 0.000000
     CHANNELS 3 Yrotation Xrotation Zrotation
     JOINT Neck
     {
      OFFSET 0.000000 14.453000 0.000000
      CHANNELS 3 Yrotation Xrotation Zrotation
      JOINT Head
      {
       OFFSET 0.000000 8.936500 -0.011300
       CHANNELS 3 Yrotation Xrotation Zrotation
       End Site
       {
        OFFSET 0.000000 17.073600 -0.006000
       }
      }
     }
     JOINT RightCollar
     {
      OFFSET -2.921100 9.558500 0.000000
      CHANNELS 3 Yrotation Xrotation Zrotation
      JOINT RightShoulder
      {
       OFFSET -13.519700 0.000000 0.000000
       CHANNELS 3 Yrotation Xrotation Zrotation
       JOINT RightElbow
       {
        OFFSET 0.000000 -29.696600 0.000000
        CHANNELS 3 Yrotation Xrotation Zrotation
        JOINT RightWrist
        {
         OFFSET 0.000000 -24.004700 0.000000
         CHANNELS 3 Yrotation Xrotation Zrotation
         End Site
         {
          OFFSET 0.000000 -17.728500 0.000000
         }
        }
       }
      }
     }
     JOINT LeftCollar
     {
      OFFSET 2.921100 9.558500 0.000000
      CHANNELS 3 Yrotation Xrotation Zrotation
      JOINT LeftShoulder
      {
       OFFSET 13.519700 0.000000 0.000000
       CHANNELS 3 Yrotation Xrotation Zrotation
       JOINT LeftElbow
       {
        OFFSET 0.000000 -29.696600 0.000000
        CHANNELS 3 Yrotation Xrotation Zrotation
        JOINT LeftWrist
        {
         OFFSET 0.000000 -24.004700 0.000000
         CHANNELS 3 Yrotation Xrotation Zrotation
         End Site
         {
          OFFSET 0.000000 -17.728500 0.000000
         }
        }
       }
      }
     }
    }
   }
  }
 }
 JOINT RightHip
 {
  OFFSET -7.771700 -0.012900 -0.001300
  CHANNELS 3 Yrotation Xrotation Zrotation
  JOINT RightKnee
  {
   OFFSET 0.000000 -40.869800 0.001200
   CHANNELS 3 Yrotation Xrotation Zrotation
   JOINT RightAnkle
   {
    OFFSET 0.000000 -39.717900 0.002100
    CHANNELS 3 Yrotation Xrotation Zrotation
    JOINT RightToe
    {
     OFFSET 0.000000 -4.965400 11.033500
     CHANNELS 3 Yrotation Xrotation Zrotation
     End Site
     {
      OFFSET 0.000000 -1.423100 5.872300
     }
    }
   }
  }
 }
 JOINT LeftHip
 {
  OFFSET 7.771700 -0.012900 -0.001300
  CHANNELS 3 Yrotation Xrotation Zrotation
  JOINT LeftKnee
  {
   OFFSET 0.000000 -40.869800 0.001200
   CHANNELS 3 Yrotation Xrotation Zrotation
   JOINT LeftAnkle
   {
    OFFSET 0.000000 -39.717900 0.002100
    CHANNELS 3 Yrotation Xrotation Zrotation
    JOINT LeftToe
    {
     OFFSET 0.000000 -4.965400 11.033500
     CHANNELS 3 Yrotation Xrotation Zrotation
     End Site
     {
      OFFSET 0.000000 -1.423100 5.872300
     }
    }
   }
  }
 }
}
MOTION
Frames: 6
Frame Time: 0.008333
-18.497466 58.120501 72.158562 173.286316 -30.274426 -2.347612 3.724517 19.421022 5.000208 0.354564 2.457305 0.357288 0.600930 4.018037 0.596101 2.860425 16.906013 2.862845 -0.573067 16.830644 -0.758154 -0.794388 -4.549172 -1.204602 2.561755 -3.875652 -0.776086 8.489231 -12.322347 -17.520119 -131.409748 -85.280448 167.544272 14.727142 -10.193906 -36.477607 -6.224389 -4.013335 -1.756251 4.666574 -7.355555 0.040623 -103.574622 -83.780600 68.950290 -3.558940 -2.599052 16.840314 7.803011 -41.012492 1.584408 -5.049522 66.600083 -8.072818 3.942881 5.938691 8.184995 -0.581249 0.762719 -0.262515 -3.811605 -47.710457 4.540744 26.915350 58.446529 27.145343 -12.679840 41.655127 3.396355 -0.032539 -17.469639 -7.171222
-18.498955 58.113248 72.158742 173.277864 -30.278192 -2.350964 3.729815 19.430113 5.006198 0.358425 2.453313 0.357752 0.589371 4.036506 0.594009 2.863520 16.901616 2.861196 -0.559897 16.811889 -0.757716 -0.779113 -4.578359 -1.209357 2.571765 -3.889958 -0.780765 8.497958 -12.320540 -17.517471 -131.471888 -85.284501 167.595075 14.726875 -10.191586 -36.465507 -6.212059 -4.026200 -1.757521 4.691971 -7.330211 0.049051 -103.733559 -83.782649 69.088438 -3.559459 -2.603003 16.837267 7.804519 -41.013746 1.590538 -5.049577 66.600991 -8.069258 3.941716 5.954328 8.191955 -0.577296 0.753734 -0.270118 -3.819429 -47.706199 4.558100 26.920731 58.453047 27.142260 -12.673476 41.640784 3.415255 -0.018350 -17.551897 -7.188042
-18.500571 58.106394 72.158144 173.272563 -30.285303 -2.355287 3.727499 19.452917 5.005095 0.362799 2.446471 0.362024 0.591140 4.040533 0.592216 2.862761 16.906415 2.861962 -0.555127 16.793874 -0.759295 -0.760578 -4.610374 -1.212544 2.576942 -3.905907 -0.783800 8.506753 -12.318889 -17.517079 -131.500902 -85.285846 167.615655 14.726200 -10.188283 -36.452044 -6.203931 -4.043294 -1.757448 4.696209 -7.322639 0.051431 -103.609985 -83.776405 68.964765 -3.558380 -2.606745 16.839028 7.802901 -41.009555 1.599028 -5.047910 66.601810 -8.068410 3.942039 5.962006 8.198410 -0.576704 0.750362 -0.273952 -3.827441 -47.698168 4.572734 26.920821 58.461352 27.136545 -12.664332 41.621941 3.427579 -0.008045 -17.606260 -7.198372
-18.501789 58.099170 72.158390 173.261521 -30.285437 -2.360400 3.740660 19.462011 5.011648 0.358829 2.455458 0.359160 0.596836 4.035961 0.596019 2.865207 16.906064 2.864517 -0.548227 16.780238 -0.758110 -0.753470 -4.643580 -1.213755 2.571421 -3.916163 -0.787494 8.522538 -12.320129 -17.515482 -131.517020 -85.288727 167.621249 14.723985 -10.182562 -36.440403 -6.204538 -4.057744 -1.755606 4.699919 -7.313985 0.053364 -103.503687 -83.769923 68.863961 -3.553377 -2.602609 16.836985 7.810566 -41.014476 1.603031 -5.047681 66.601756 -8.059909 3.947466 5.974784 8.203411 -0.579866 0.747560 -0.276685 -3.832292 -47.698531 4.588900 26.917074 58.471071 27.132825 -12.649283 41.603588 3.440007 -0.007221 -17.616593 -7.206656
-18.502766 58.091741 72.159293 173.251208 -30.279585 -2.368347 3.754702 19.465352 5.021558 0.359724 2.448235 0.361681 0.597206 4.043926 0.595261 2.866977 16.899843 2.866144 -0.544411 16.777297 -0.758481 -0.747246 -4.677851 -1.214745 2.568353 -3.919963 -0.787949 8.537516 -12.318851 -17.518005 -131.498334 -85.289754 167.599004 14.724358 -10.174073 -36.440566 -6.207674 -4.061912 -1.752810 4.714094 -7.296034 0.052685 -103.307169 -83.770307 68.646691 -3.554816 -2.594100 16.843351 7.814840 -41.024997 1.606196 -5.056482 66.599114 -8.053864 3.957787 5.987380 8.200489 -0.584040 0.753061 -0.273973 -3.839092 -47.705989 4.605911 26.917121 58.477917 27.136359 -12.640762 41.591923 3.452202 0.009330 -17.756971 -7.222879
-18.504609 58.084826 72.159464 173.248583 -30.276053 -2.374742 3.759901 19.469058 5.027116 0.359343 2.452150 0.361394 0.598192 4.035777 0.597363 2.869606 16.915545 2.866795 -0.543103 16.760319 -0.758560 -0.740439 -4.711381 -1.217736 2.567635 -3.937794 -0.789528 8.545025 -12.318629 -17.521708 -131.355597 -85.299267 167.473766 14.735681 -10.178201 -36.465877 -6.211831 -4.083968 -1.753057 4.719936 -7.264254 0.063858 -103.298571 -83.770832 68.632797 -3.563855 -2.616553 16.850293 7.817010 -41.031836 1.604478 -5.051288 66.600285 -8.038939 3.962387 5.994426 8.199585 -0.585641 0.753211 -0.273100 -3.845230 -47.710745 4.613861 26.921183 58.479782 27.142566 -12.638911 41.590057 3.464419 0.028597 -17.857054 -7.240596
